<?xml version="1.0" standalone="no"?>
<!DOCTYPE svg PUBLIC "-//W3C//DTD SVG 20010904//EN"
 "http://www.w3.org/TR/2001/REC-SVG-20010904/DTD/svg10.dtd">
<svg version="1.0" xmlns="http://www.w3.org/2000/svg"
 width="300.000000pt" height="168.000000pt" viewBox="0 0 300.000000 168.000000"
 preserveAspectRatio="xMidYMid meet">

<g transform="translate(0.000000,168.000000) scale(0.100000,-0.100000)"
fill="#000000" stroke="none">
<path d="M150 1084 c0 -4 25 -40 55 -81 31 -40 53 -78 50 -84 -5 -7 -11 -7
-19 0 -10 8 -16 4 -24 -15 -7 -14 -12 -30 -12 -37 0 -7 -16 -39 -36 -72 -32
-52 -35 -64 -28 -94 12 -47 36 -60 72 -41 37 21 39 47 7 80 l-26 27 18 62 c10
33 23 61 29 61 7 0 22 8 35 19 l23 18 -28 34 c-60 71 -116 131 -116 123z m20
-364 c0 -5 -4 -10 -10 -10 -5 0 -10 5 -10 10 0 6 5 10 10 10 6 0 10 -4 10 -10z"/>
<path d="M365 987 c34 -39 60 -60 84 -67 52 -14 57 -13 59 20 2 27 -2 33 -33
46 -20 8 -51 14 -70 12 -25 -1 -42 5 -62 22 -15 14 -5 -1 22 -33z"/>
<path d="M270 1010 c0 -27 28 -70 46 -70 10 0 11 7 2 33 -19 55 -48 78 -48 37z"/>
<path d="M510 991 c0 -5 5 -13 10 -16 6 -3 10 -2 10 4 0 5 -4 13 -10 16 -5 3
-10 2 -10 -4z"/>
<path d="M1737 936 c-46 -43 -32 -94 40 -141 26 -16 51 -37 56 -46 16 -26 0
-65 -33 -79 -25 -10 -34 -10 -55 4 -14 9 -25 24 -25 33 0 11 -3 14 -10 7 -19
-19 1 -53 35 -60 65 -12 123 18 139 71 9 30 -25 77 -78 111 -49 31 -61 51 -51
84 9 29 70 28 96 -2 l19 -23 -2 30 c-3 29 -5 30 -54 33 -42 2 -54 -1 -77 -22z"/>
<path d="M763 939 c14 -8 17 -25 17 -110 0 -68 5 -109 15 -128 34 -66 170 -66
205 -1 6 11 13 68 17 127 3 63 10 111 17 115 6 4 -8 8 -32 8 -40 0 -42 -1 -28
-16 12 -12 16 -38 16 -113 0 -115 -13 -140 -77 -147 -70 -8 -92 34 -93 178 0
63 3 79 18 87 13 8 4 10 -38 10 -42 0 -51 -2 -37 -10z"/>
<path d="M1132 943 c25 -6 30 -37 26 -158 -2 -76 -7 -108 -17 -114 -9 -6 0
-10 28 -13 47 -4 57 0 36 16 -13 11 -18 57 -16 165 l1 44 62 -69 c87 -95 147
-154 158 -154 6 0 10 57 10 139 0 102 3 141 13 144 6 3 -8 6 -32 6 -41 1 -43
0 -25 -13 17 -13 19 -25 17 -102 -2 -48 -5 -89 -7 -92 -3 -2 -20 13 -38 34
-18 21 -58 65 -88 97 -30 33 -56 63 -58 68 -2 5 -22 8 -45 8 -23 -1 -34 -3
-25 -6z"/>
<path d="M1531 943 c22 -5 29 -45 29 -157 0 -94 -4 -109 -30 -119 -8 -3 10 -6
40 -6 30 0 50 3 43 7 -8 5 -13 50 -15 135 -2 105 0 129 12 137 10 7 -2 9 -40
9 -30 -1 -48 -3 -39 -6z"/>
<path d="M1941 940 c9 -5 26 -36 39 -67 60 -157 88 -218 100 -218 7 0 27 38
44 87 18 49 36 92 42 98 7 7 23 -21 50 -86 21 -53 43 -97 49 -98 5 0 35 62 67
138 31 77 63 143 70 147 8 5 -7 8 -37 8 -27 -1 -42 -3 -32 -6 9 -2 17 -12 16
-21 0 -26 -65 -196 -75 -199 -9 -3 -74 170 -74 199 0 9 6 19 13 21 6 3 -15 5
-48 5 -33 0 -52 -2 -43 -5 31 -8 32 -49 3 -131 -15 -42 -30 -83 -34 -90 -5 -9
-22 23 -44 83 -40 104 -44 130 -24 138 6 3 -13 6 -43 6 -39 0 -50 -2 -39 -9z"/>
<path d="M2511 933 c-5 -10 -30 -70 -56 -133 -25 -63 -56 -123 -67 -132 -20
-18 -19 -18 32 -18 50 0 52 1 37 18 -17 18 -14 54 6 80 5 6 31 12 58 12 44 0
50 -3 65 -32 13 -24 14 -36 5 -50 -17 -27 -15 -28 41 -28 50 0 51 1 31 15 -12
8 -27 32 -34 53 -24 74 -92 232 -100 232 -5 0 -12 -8 -18 -17z m29 -89 c11
-25 20 -48 20 -50 0 -2 -19 -4 -41 -4 -38 0 -41 2 -35 23 4 12 9 34 12 50 9
39 22 34 44 -19z"/>
<path d="M2720 940 c0 -5 7 -10 15 -10 13 0 15 -20 15 -124 0 -118 -1 -126
-22 -140 -21 -15 -20 -16 37 -16 49 0 56 2 43 13 -9 6 -18 33 -21 58 l-4 47
52 -2 c39 -1 58 4 74 18 44 40 35 132 -15 155 -31 14 -174 15 -174 1z m165
-33 c31 -44 9 -109 -40 -121 -39 -10 -58 6 -62 55 -8 79 8 101 65 91 12 -3 29
-14 37 -25z"/>
<path d="M530 922 c0 -5 7 -13 16 -16 10 -4 14 -1 12 6 -5 15 -28 23 -28 10z"/>
<path d="M410 905 c0 -28 32 -58 95 -89 41 -19 78 -43 84 -53 9 -15 10 -11 11
20 0 21 -4 46 -10 56 -11 22 -79 51 -120 51 -16 0 -32 5 -35 10 -6 10 -25 14
-25 5z"/>
<path d="M285 872 c-13 -13 -3 -23 20 -20 14 2 24 7 23 13 -3 10 -35 15 -43 7z"/>
<path d="M480 780 c0 -11 14 -42 30 -68 17 -27 30 -60 30 -72 0 -22 1 -23 20
-5 14 13 20 31 20 61 0 37 -5 47 -37 73 -43 36 -63 39 -63 11z"/>
<path d="M446 765 c-3 -9 -16 -20 -28 -25 -16 -6 -18 -9 -6 -9 18 -1 48 24 48
40 0 14 -7 11 -14 -6z"/>
<path d="M273 673 l-33 -16 24 -16 c13 -9 35 -24 48 -34 25 -18 58 -14 58 6 0
8 -3 8 -11 0 -16 -16 -39 -5 -39 18 0 24 23 34 45 21 9 -5 27 -26 39 -48 15
-26 29 -40 46 -42 l25 -3 -24 13 c-15 8 -28 27 -33 48 -17 66 -75 88 -145 53z"/>
</g>
</svg>
